HIERARCHY
ROOT Hips
{
   OFFSET 0.00000 0.00000 0.00000
   CHANNELS 6 Xposition Yposition Zposition Zrotation Xrotation Yrotation
   JOINT RightUpLeg
   {
      OFFSET -8.945800 -8.667070 0.101652
      CHANNELS 3 Zrotation Xrotation Yrotation
      JOINT RightLeg
      {
         OFFSET 0.000000 -44.422697 1.372700
         CHANNELS 3 Zrotation Xrotation Yrotation
         JOINT RightFoot
         {
            OFFSET 0.253549 -42.092399 -1.460590
            CHANNELS 3 Zrotation Xrotation Yrotation
            JOINT RightToes
            {
               OFFSET 0.040000 -4.415090 8.499099
               CHANNELS 3 Zrotation Xrotation Yrotation
               End Site
               {
                  OFFSET -0.080000 -0.137448 9.779790
               }
            }
         }
      }
   }
   JOINT Spine
   {
      OFFSET 0.000000 11.890501 0.000000
      CHANNELS 3 Zrotation Xrotation Yrotation
      JOINT Spine1
      {
         OFFSET 0.000000 25.657401 0.127663
         CHANNELS 3 Zrotation Xrotation Yrotation
         JOINT HEad
         {
            OFFSET 0.000000 8.734161 0.011341
            CHANNELS 3 Zrotation Xrotation Yrotation
            End Site
            {
               OFFSET -0.290000 12.774200 2.513950
            }
         }
         JOINT LeftShoulder1
         {
            OFFSET 8.990000 -0.362252 -0.220000
            CHANNELS 3 Zrotation Xrotation Yrotation
            JOINT LeftArm
            {
               OFFSET 10.282700 -0.003380 0.322123
               CHANNELS 3 Zrotation Xrotation Yrotation
               JOINT LeftForeArm
               {
                  OFFSET 32.766900 0.099144 -1.424340
                  CHANNELS 3 Zrotation Xrotation Yrotation
                  JOINT LeftHand
                  {
                     OFFSET 27.564301 0.085362 1.022160
                     CHANNELS 3 Zrotation Xrotation Yrotation
                     End Site
                     {
                        OFFSET 16.744301 -0.600000 1.502910
                     }
                  }
               }
            }
         }
         JOINT RightShoulder
         {
            OFFSET -8.990000 -0.362252 -0.220000
            CHANNELS 3 Zrotation Xrotation Yrotation
            JOINT RightArm
            {
               OFFSET -10.282700 -0.003380 0.322123
               CHANNELS 3 Zrotation Xrotation Yrotation
               JOINT RightForeArm
               {
                  OFFSET -32.897098 0.099144 -1.424340
                  CHANNELS 3 Zrotation Xrotation Yrotation
                  JOINT RightHand
                  {
                     OFFSET -27.492101 0.085362 1.022160
                     CHANNELS 3 Zrotation Xrotation Yrotation
                     End Site
                     {
                        OFFSET -16.631201 -0.600000 1.502910
                     }
                  }
               }
            }
         }
      }
   }
   JOINT LeftUpLeg
   {
      OFFSET 8.945800 -8.667070 0.101652
      CHANNELS 3 Zrotation Xrotation Yrotation
      JOINT LeftLeg
      {
         OFFSET 0.000000 -44.422697 1.372700
         CHANNELS 3 Zrotation Xrotation Yrotation
         JOINT LeftFoot
         {
            OFFSET -0.253549 -42.092399 -1.460590
            CHANNELS 3 Zrotation Xrotation Yrotation
            JOINT LeftToes
            {
               OFFSET -0.040000 -4.415090 8.499099
               CHANNELS 3 Zrotation Xrotation Yrotation
               End Site
               {
                  OFFSET 0.080000 -0.047448 9.779790
               }
            }
         }
      }
   }
}
MOTION
Frames: 6
Frame Time: 0.016667
-175.055749 104.051426 -386.228403 5.389107 44.545367 173.349450 -20.132365 33.244115 15.245206 12.279055 32.329249 -39.819972 -13.634800 28.932965 35.079647 -16.843491 -20.564277 -27.341421 3.568886 44.230594 93.777363 28.662120 -1.384304 -97.982253 8.661485 31.971118 26.091082 -7.566139 5.317810 -17.633645 -46.603982 -56.439441 -61.464094 -16.573353 -9.099659 -45.031191 -10.097020 1.166723 -41.585982 1.330458 47.070266 43.035642 156.087854 238.209322 228.551489 -3.704156 342.952486 61.445864 -0.214557 -22.381415 56.358510 15.713053 20.745470 -4.927401 -9.821762 18.729477 51.008867 -45.697729 28.198520 18.866555 -3.147480 -5.863740 -11.178267
-176.159036 104.409235 -387.130693 5.688973 44.040179 173.074753 -21.236790 32.466830 14.833101 12.878412 31.584243 -37.651049 -13.158223 29.212736 35.469288 -16.753482 -20.072355 -27.124363 2.245876 45.319955 94.292865 28.197338 -1.485703 -98.696882 6.575715 32.316733 25.953792 -6.693900 6.092447 -18.598993 -44.292684 -59.236598 -56.848648 -14.769955 -16.914154 -46.921904 -11.577198 3.512153 -34.055542 -5.044476 45.414331 44.768915 157.070582 238.785053 229.035600 -4.993882 343.669738 61.921641 6.350693 -19.852730 57.053356 15.272896 19.805597 -2.181582 -9.195557 20.363301 49.977768 -43.615911 27.456631 18.349465 -3.310907 -6.031030 -10.717205
-177.309301 104.679058 -388.103823 5.849457 42.542042 171.097700 -22.173535 30.594374 14.900485 11.571255 30.589419 -34.292952 -12.451799 29.086234 35.507923 -16.506190 -19.157123 -26.795203 1.711217 44.591382 94.564666 27.450465 -2.801552 -98.656113 3.196122 32.220813 25.935442 -4.662107 9.862836 -19.928619 -41.556964 -64.042429 -49.293168 -16.147634 -24.114318 -46.054617 -14.277544 5.585369 -21.692554 -12.216657 41.367307 46.516249 157.232935 241.196191 228.937340 -6.411576 341.848536 62.823288 12.840581 -15.536020 55.404015 13.768744 18.598177 0.596722 -9.139367 21.811784 49.755094 -40.102769 26.157970 17.916322 -3.680483 -6.565273 -9.805041
-178.575170 104.979952 -389.162210 6.115019 38.800867 166.804093 -23.834362 26.648101 15.996928 9.955178 27.845129 -29.359920 -12.208197 28.202483 35.451226 -16.175032 -17.736272 -26.174929 -0.820008 44.402336 97.587400 26.926250 -2.881005 -97.669144 -0.843934 30.753371 25.867687 -3.077150 12.940444 -22.337061 -32.878710 -69.348625 -37.150376 -21.752776 -33.921014 -47.600514 -25.241164 3.567427 -4.538713 -22.234165 41.523916 41.989640 155.996466 246.418745 229.110814 -7.595316 338.223837 59.211818 19.448052 -7.763241 44.127322 12.637373 14.983178 4.182328 -10.224280 23.991427 50.666514 -34.952547 25.288866 17.452822 -4.152142 -7.069333 -8.336197
-179.805543 105.371664 -390.195459 7.057416 35.250767 160.132064 -25.669471 22.394242 18.013823 8.675309 25.314648 -24.385351 -12.216291 27.144090 35.248386 -15.853334 -16.052756 -25.317011 -6.178911 42.330627 100.763595 25.902050 -2.247576 -96.658651 -5.720706 28.101990 26.262489 -1.557468 17.431604 -22.568388 -13.486219 -75.606677 -15.465362 -30.046381 -42.957539 -44.690631 -33.416516 3.099068 -0.951688 -22.694898 38.130689 40.170456 152.338900 239.349008 229.241421 -9.646413 335.724753 55.448483 2.436372 -5.086779 56.298719 12.502321 12.190641 8.640943 -9.972570 25.736071 50.610527 -32.192126 24.881239 16.872589 -4.803029 -7.136253 -6.165097
-181.007344 105.843361 -391.114839 7.636455 31.426756 154.045996 -26.851478 18.019929 19.487549 8.515240 22.744696 -20.645877 -12.396545 25.692498 34.943016 -15.663608 -14.607328 -24.429997 -11.647101 40.514486 103.056551 24.941862 -0.052888 -94.241270 -10.810629 25.505171 26.790471 -0.947102 18.940758 -22.309908 13.060322 -77.118143 7.988019 -39.127661 -49.385024 -41.487870 -33.308944 9.282304 -0.117788 -23.108973 34.729036 40.047687 150.311495 231.269795 229.077059 -9.209193 329.651758 49.698813 17.175853 4.976442 31.157250 12.814387 9.521279 11.960646 -9.563931 26.726581 50.228306 -30.781453 24.141531 16.357326 -5.716467 -7.331300 -3.237580
